<svg width="204" height="116" viewBox="0 0 204 116" fill="none" xmlns="http://www.w3.org/2000/svg">
<g filter="url(#filter0_d_4456_204390)">
<rect x="18" y="16" width="167.5" height="80" rx="10" fill="#04A59B" shape-rendering="crispEdges"/>
<rect x="18.5" y="16.5" width="166.5" height="79" rx="9.5" stroke="#B1EAEA" shape-rendering="crispEdges"/>
<g clip-path="url(#clip0_4456_204390)">
<path d="M93.848 58.9238C92.202 58.9238 90.8677 57.8025 90.8677 55.9472C90.8677 54.1986 92.202 52.9692 93.848 52.9692C94.5076 52.9659 95.1479 53.1917 95.6598 53.6083C95.7289 53.6654 95.8093 53.707 95.8957 53.7305C95.9821 53.754 96.0725 53.7588 96.1609 53.7446C96.2492 53.7304 96.3336 53.6975 96.4083 53.6481C96.483 53.5987 96.5463 53.5339 96.5941 53.4581L96.948 52.8928C97.0367 52.7518 97.0699 52.5829 97.0412 52.4188C97.0125 52.2547 96.9239 52.1071 96.7927 52.0047C95.9099 51.3239 94.824 50.9605 93.7098 50.973C90.8335 50.973 88.502 53.0246 88.502 55.9472C88.502 59.0477 90.8335 60.9201 93.7098 60.9201C94.9122 60.9255 96.0812 60.5238 97.027 59.7803C97.1735 59.6639 97.2718 59.4974 97.3032 59.3128C97.3345 59.1282 97.2966 58.9385 97.1967 58.7802L96.9414 58.3717C96.8909 58.2904 96.8241 58.2206 96.7451 58.1667C96.6661 58.1127 96.5768 58.0759 96.4828 58.0585C96.3888 58.0412 96.2922 58.0437 96.1992 58.0658C96.1062 58.088 96.0189 58.1293 95.9427 58.1872C95.3432 58.6546 94.6077 58.9132 93.848 58.9238Z" fill="white"/>
<path d="M103.46 50.9727C100.584 50.9727 98.252 53.0243 98.252 55.9469C98.252 59.0473 100.584 60.9198 103.46 60.9198C106.336 60.9198 108.668 59.0473 108.668 55.9469C108.668 53.0243 106.336 50.9727 103.46 50.9727ZM103.46 58.8919C101.912 58.8919 100.659 57.7824 100.659 55.9469C100.659 54.2168 101.912 53.0006 103.46 53.0006C105.007 53.0006 106.261 54.2168 106.261 55.9469C106.261 57.7824 105.007 58.8919 103.46 58.8919Z" fill="white"/>
<path d="M119.276 54.7596C119.276 52.6672 118.539 50.9727 115.843 50.9727C113.606 50.9727 112.594 53.1297 112.594 53.1297V51.9662C112.594 51.5577 112.388 51.227 111.98 51.227H111.103C110.908 51.227 110.72 51.3048 110.581 51.4435C110.443 51.5821 110.365 51.7701 110.365 51.9662V59.9671C110.365 60.0642 110.384 60.1603 110.421 60.25C110.459 60.3397 110.513 60.4211 110.581 60.4898C110.65 60.5584 110.731 60.6129 110.821 60.65C110.91 60.6872 111.006 60.7063 111.103 60.7063H111.98C112.077 60.7063 112.173 60.6872 112.262 60.65C112.352 60.6129 112.433 60.5584 112.502 60.4898C112.57 60.4211 112.625 60.3397 112.662 60.25C112.699 60.1603 112.718 60.0642 112.718 59.9671V56.4186C112.718 54.4184 114.015 53.1165 115.318 53.1165C116.488 53.1165 116.934 53.8518 116.934 54.761V59.9684C116.934 60.0655 116.953 60.1616 116.99 60.2513C117.027 60.341 117.081 60.4225 117.15 60.4911C117.218 60.5597 117.3 60.6142 117.389 60.6513C117.479 60.6885 117.575 60.7076 117.672 60.7076H118.548C118.645 60.7076 118.741 60.6885 118.831 60.6513C118.92 60.6142 119.002 60.5597 119.07 60.4911C119.139 60.4225 119.193 60.341 119.23 60.2513C119.267 60.1616 119.286 60.0655 119.286 59.9684L119.276 54.7596Z" fill="white"/>
<path d="M127.342 53.185C127.256 53.3261 127.121 53.4299 126.963 53.4758C126.804 53.5217 126.634 53.5063 126.487 53.4327C125.366 52.8741 123.329 52.4326 123.329 53.8755C123.329 54.4526 124.317 54.761 124.808 54.9639C125.839 55.3934 127.045 55.7044 127.703 56.6966C127.978 57.1091 128.025 57.5768 128.025 58.0459C128.025 60.307 125.671 60.9119 124.596 60.9211C123.433 60.9316 122.146 60.6114 121.188 59.942C121.055 59.8473 120.962 59.7065 120.927 59.547C120.892 59.3876 120.918 59.2208 120.999 59.079L121.288 58.5756C121.381 58.4139 121.534 58.2954 121.714 58.2461C121.894 58.1967 122.086 58.2205 122.249 58.3121C122.755 58.6058 123.296 58.8326 123.86 58.9867C124.584 59.1738 125.784 59.0329 125.784 58.208C125.784 57.117 124.732 57.0998 123.535 56.6176C122.389 56.159 121.126 55.5278 121.126 53.9822C121.126 51.8739 122.829 50.9727 124.647 50.9727C125.832 50.9727 126.73 51.2731 127.479 51.787C127.614 51.8792 127.708 52.0197 127.743 52.1795C127.777 52.3393 127.749 52.5063 127.664 52.6461C127.557 52.8279 127.451 53.0045 127.342 53.185Z" fill="white"/>
<path d="M133.488 50.9727C131.839 50.9727 130.747 51.5221 130.189 51.9029C130.063 51.9887 129.973 52.1188 129.937 52.2675C129.902 52.4162 129.923 52.5729 129.997 52.7067L130.31 53.2812C130.388 53.4227 130.518 53.5278 130.673 53.5734C130.828 53.6191 130.994 53.6017 131.136 53.525C131.799 53.177 132.531 52.9799 133.279 52.9478C133.979 52.9478 135.039 53.1705 135.039 54.8901C130.44 54.8901 129.104 56.1827 129.104 57.9616C129.104 59.7404 130.106 60.9198 132.393 60.9198C134.288 60.9198 135.239 59.0658 135.239 59.0658V59.9671C135.239 60.1631 135.317 60.3512 135.455 60.4898C135.594 60.6284 135.781 60.7063 135.977 60.7063H136.61C136.806 60.7059 136.993 60.6279 137.131 60.4893C137.269 60.3507 137.347 60.1629 137.347 59.9671V54.5844C137.347 52.7397 136.007 50.9727 133.488 50.9727ZM132.836 59.1633C131.844 59.1633 131.389 58.4966 131.389 57.789C131.389 56.5359 133.004 56.2802 135.038 56.2802C135.042 57.9748 134.111 59.1633 132.839 59.1633H132.836Z" fill="white"/>
<path d="M141.864 48.2392V57.7133C141.864 59.1798 143.151 58.2759 143.151 59.3788V60.1694C143.151 60.3347 143.086 60.4932 142.969 60.6101C142.852 60.727 142.694 60.7927 142.529 60.7927C140.021 60.7927 139.512 59.4921 139.512 57.3667V48.2392C139.512 48.0432 139.589 47.8551 139.728 47.7165C139.866 47.5779 140.054 47.5 140.25 47.5H141.126C141.322 47.5 141.51 47.5779 141.648 47.7165C141.787 47.8551 141.864 48.0432 141.864 48.2392Z" fill="white"/>
<path d="M144.586 57.1363C144.586 59.2287 145.199 60.9233 147.895 60.9233C150.36 60.9233 151.199 58.7662 151.199 58.7662V59.9297C151.199 60.3382 151.406 60.669 151.814 60.669H152.696C152.793 60.669 152.889 60.6498 152.979 60.6127C153.069 60.5755 153.15 60.5211 153.218 60.4524C153.287 60.3838 153.341 60.3023 153.378 60.2126C153.416 60.1229 153.435 60.0268 153.435 59.9297V51.9697C153.435 51.7736 153.357 51.5856 153.218 51.447C153.08 51.3084 152.892 51.2305 152.696 51.2305H151.82C151.624 51.2305 151.437 51.3084 151.298 51.447C151.16 51.5856 151.082 51.7736 151.082 51.9697V55.4786C151.082 57.4789 149.853 58.7807 148.552 58.7807C147.381 58.7807 146.935 58.0455 146.935 57.1363V51.9697C146.935 51.7736 146.857 51.5856 146.718 51.447C146.58 51.3084 146.392 51.2305 146.196 51.2305H145.32C145.124 51.2305 144.937 51.3084 144.798 51.447C144.66 51.5856 144.582 51.7736 144.582 51.9697L144.586 57.1363Z" fill="white"/>
<path d="M162.264 48.2392V52.324C161.559 51.4873 160.605 50.9734 159.539 50.9734C157.472 50.9734 155.209 52.5467 155.209 55.9476C155.209 58.6936 156.601 60.9205 159.354 60.9205C160.567 60.9205 161.658 60.2959 162.416 59.2984V60.0166C162.416 60.1998 162.489 60.3754 162.618 60.5049C162.748 60.6343 162.923 60.707 163.106 60.707H163.881C164.064 60.7067 164.239 60.6338 164.368 60.5044C164.498 60.375 164.57 60.1996 164.571 60.0166V48.2392C164.571 48.0432 164.493 47.8551 164.355 47.7165C164.216 47.5779 164.028 47.5 163.833 47.5H163.006C162.811 47.5 162.623 47.5779 162.484 47.7165C162.346 47.8551 162.268 48.0432 162.268 48.2392H162.264ZM159.934 58.9624C158.348 58.9624 157.547 57.5802 157.547 55.9476C157.547 53.9856 158.722 53.0316 160.041 53.0316C161.397 53.0316 162.32 54.315 162.32 55.9476C162.317 57.903 161.25 58.9624 159.934 58.9624Z" fill="white"/>
<path d="M133.6 65.2751C133.934 65.276 134.263 65.3617 134.554 65.5241V66.1079C134.277 65.9195 133.954 65.8094 133.619 65.789C133.483 65.7812 133.348 65.8147 133.232 65.8852C133.188 65.9122 133.153 65.9501 133.128 65.9951C133.104 66.0402 133.091 66.0909 133.092 66.1421C133.092 66.2739 133.179 66.3885 133.356 66.4966C133.405 66.53 133.592 66.6209 133.917 66.7693C134.15 66.8657 134.356 67.0156 134.519 67.2068C134.644 67.3731 134.709 67.577 134.704 67.7853C134.709 67.9193 134.683 68.0527 134.628 68.1753C134.574 68.2978 134.492 68.4064 134.39 68.4929C134.159 68.6771 133.869 68.7708 133.574 68.7564C133.385 68.7597 133.197 68.7353 133.015 68.6839C132.83 68.623 132.654 68.5403 132.489 68.4375V67.7905C132.852 68.0918 133.193 68.2425 133.514 68.2425C133.653 68.2506 133.791 68.2141 133.908 68.1384C133.954 68.1084 133.992 68.0671 134.018 68.0185C134.044 67.9699 134.057 67.9154 134.056 67.8604C134.052 67.7781 134.026 67.6985 133.979 67.6307C133.933 67.5629 133.868 67.5096 133.792 67.4769C133.649 67.3992 133.466 67.3056 133.24 67.1963C133.011 67.1019 132.806 66.9563 132.641 66.7707C132.511 66.6121 132.441 66.4122 132.444 66.2067C132.439 66.0759 132.466 65.9458 132.521 65.8272C132.577 65.7086 132.659 65.6048 132.762 65.5241C133.005 65.3479 133.301 65.26 133.6 65.2751Z" fill="white"/>
<path d="M137.013 65.2739C137.342 65.2692 137.667 65.3442 137.961 65.4926C138.24 65.637 138.473 65.8553 138.636 66.1235C138.799 66.3918 138.885 66.6998 138.885 67.0139C138.885 67.3279 138.799 67.6359 138.636 67.9042C138.473 68.1725 138.24 68.3908 137.961 68.5351C137.663 68.6846 137.335 68.7624 137.002 68.7624C136.669 68.7624 136.341 68.6846 136.043 68.5351C135.766 68.3914 135.533 68.1739 135.372 67.9066C135.211 67.6399 135.128 67.3338 135.131 67.0224C135.131 66.7135 135.214 66.4103 135.372 66.1449C135.527 65.8744 135.755 65.653 136.03 65.5058C136.332 65.3464 136.671 65.2666 137.013 65.2739ZM135.815 67.0185C135.812 67.2309 135.865 67.4403 135.968 67.6259C136.067 67.8034 136.215 67.9487 136.394 68.045C136.585 68.1455 136.797 68.1963 137.013 68.1925C137.17 68.1978 137.327 68.1715 137.475 68.1152C137.622 68.0588 137.756 67.9736 137.87 67.8644C137.982 67.7547 138.07 67.6227 138.128 67.4771C138.186 67.3314 138.213 67.1752 138.207 67.0185C138.211 66.8058 138.158 66.596 138.056 66.4097C137.957 66.2311 137.809 66.0851 137.628 65.9894C137.437 65.889 137.223 65.8382 137.007 65.8418C136.791 65.8379 136.578 65.8891 136.388 65.9907C136.208 66.086 136.061 66.2316 135.964 66.4097C135.862 66.5963 135.811 66.8061 135.815 67.0185Z" fill="white"/>
<path d="M140.087 65.3203L141.201 66.6604L142.316 65.3203H142.901V68.7173H142.243V66.3323H142.224L141.25 67.5287H141.158L140.176 66.3323H140.158V68.7173H139.5V65.3203H140.087Z" fill="white"/>
<path d="M145.389 65.2739C145.718 65.2692 146.043 65.3443 146.337 65.4926C146.545 65.6016 146.727 65.7516 146.875 65.9337C147.022 66.1158 147.131 66.326 147.194 66.5516C147.258 66.7772 147.274 67.0133 147.244 67.2456C147.213 67.4779 147.135 67.7015 147.015 67.9027C146.855 68.1715 146.623 68.3904 146.345 68.5352C146.048 68.6883 145.718 68.7657 145.383 68.7605C145.05 68.7647 144.721 68.6859 144.426 68.5312C144.148 68.3875 143.916 68.17 143.755 67.9027C143.594 67.636 143.511 67.3299 143.514 67.0185C143.514 66.7096 143.597 66.4064 143.755 66.1409C143.91 65.8707 144.138 65.6494 144.412 65.5019C144.714 65.3449 145.049 65.2665 145.389 65.2739ZM144.191 67.0185C144.188 67.2309 144.241 67.4404 144.344 67.626C144.443 67.8034 144.591 67.9487 144.77 68.045C144.961 68.1455 145.174 68.1963 145.389 68.1926C145.547 68.198 145.704 68.1718 145.851 68.1154C145.999 68.0591 146.134 67.9738 146.248 67.8645C146.359 67.7544 146.447 67.6224 146.505 67.4768C146.562 67.3312 146.589 67.1751 146.584 67.0185C146.587 66.8059 146.535 66.596 146.432 66.4098C146.334 66.2308 146.185 66.0846 146.005 65.9894C145.813 65.889 145.6 65.8382 145.383 65.8418C145.168 65.8382 144.954 65.8894 144.764 65.9907C144.585 66.086 144.437 66.2316 144.34 66.4098C144.239 66.5966 144.188 66.8062 144.191 67.0185Z" fill="white"/>
<path d="M148.857 65.2754C149.191 65.2763 149.519 65.362 149.811 65.5245V66.1082C149.534 65.9201 149.211 65.81 148.877 65.7893C148.738 65.78 148.601 65.8136 148.482 65.8855C148.439 65.9127 148.403 65.9506 148.379 65.9957C148.354 66.0407 148.342 66.0912 148.343 66.1425C148.343 66.2742 148.429 66.3889 148.606 66.4969C148.654 66.5303 148.841 66.6212 149.166 66.7697C149.399 66.866 149.605 67.0159 149.769 67.2071C149.894 67.3736 149.959 67.5775 149.953 67.7856C149.957 67.9197 149.931 68.053 149.877 68.1756C149.823 68.2982 149.741 68.4067 149.639 68.4932C149.408 68.6774 149.119 68.7711 148.824 68.7567C148.635 68.76 148.446 68.7356 148.264 68.6842C148.079 68.6234 147.902 68.5407 147.737 68.4378V67.7909C148.1 68.0922 148.441 68.2428 148.762 68.2428C148.902 68.2509 149.04 68.2145 149.157 68.1387C149.203 68.1088 149.241 68.0676 149.267 68.019C149.293 67.9703 149.306 67.9159 149.306 67.8607C149.302 67.7785 149.276 67.699 149.229 67.6312C149.182 67.5634 149.118 67.51 149.042 67.4773C148.9 67.4 148.717 67.3064 148.491 67.1966C148.262 67.1026 148.057 66.9569 147.892 66.771C147.762 66.6125 147.691 66.4127 147.694 66.207C147.689 66.0762 147.716 65.9462 147.771 65.8276C147.827 65.7089 147.909 65.6051 148.012 65.5245C148.257 65.3468 148.555 65.2588 148.857 65.2754Z" fill="white"/>
<path d="M153.692 65.2738C153.883 65.2737 154.072 65.2958 154.258 65.3396C154.465 65.3922 154.665 65.4673 154.855 65.5636V66.1816C154.673 66.0725 154.478 65.9841 154.276 65.9181C154.096 65.8649 153.909 65.8383 153.721 65.839C153.493 65.8343 153.267 65.8854 153.063 65.9879C152.874 66.0819 152.717 66.2283 152.609 66.4096C152.504 66.5951 152.449 66.8046 152.449 67.0177C152.449 67.2308 152.504 67.4403 152.609 67.6258C152.717 67.8059 152.874 67.951 153.062 68.0435C153.266 68.1434 153.492 68.1935 153.72 68.1898C153.9 68.1907 154.08 68.164 154.253 68.1107C154.474 68.0336 154.689 67.9365 154.893 67.8208V68.4388C154.7 68.5423 154.496 68.6245 154.285 68.6839C154.074 68.7361 153.857 68.7609 153.639 68.7577C153.307 68.7629 152.978 68.6893 152.68 68.5429C152.407 68.4045 152.178 68.1905 152.022 67.9262C151.862 67.6603 151.779 67.3552 151.781 67.0447C151.776 66.72 151.862 66.4003 152.03 66.1223C152.194 65.8512 152.431 65.6322 152.714 65.4912C153.019 65.3424 153.354 65.2679 153.692 65.2738Z" fill="white"/>
<path d="M157.249 65.2739C157.44 65.2739 157.63 65.296 157.815 65.3398C158.022 65.3923 158.222 65.4674 158.412 65.5638V66.1818C158.23 66.0726 158.036 65.9842 157.834 65.9182C157.653 65.8651 157.466 65.8384 157.278 65.8392C157.05 65.8344 156.824 65.8855 156.62 65.9881C156.432 66.0821 156.274 66.2284 156.166 66.4097C156.062 66.5952 156.007 66.8047 156.007 67.0178C156.007 67.2309 156.062 67.4404 156.166 67.6259C156.274 67.806 156.431 67.9511 156.619 68.0436C156.824 68.1435 157.049 68.1937 157.277 68.1899C157.455 68.1902 157.633 68.1635 157.803 68.1108C158.025 68.0337 158.24 67.9367 158.444 67.8209V68.4389C158.251 68.5427 158.047 68.6248 157.836 68.684C157.625 68.7362 157.408 68.761 157.19 68.7578C156.858 68.763 156.529 68.6894 156.231 68.543C155.957 68.4046 155.729 68.1906 155.573 67.9264C155.413 67.6604 155.33 67.3553 155.332 67.0448C155.327 66.7201 155.413 66.4004 155.581 66.1225C155.745 65.8515 155.982 65.6327 156.265 65.4913C156.571 65.3415 156.909 65.267 157.249 65.2739Z" fill="white"/>
<path d="M159.599 65.3203V66.7698H159.613C159.693 66.6586 159.797 66.5679 159.919 66.5049C160.04 66.442 160.174 66.4085 160.311 66.4074C160.419 66.4029 160.527 66.4219 160.628 66.463C160.729 66.5042 160.819 66.5666 160.893 66.6459C161.045 66.8166 161.124 67.0396 161.115 67.2678V68.7173H160.519V67.3772C160.525 67.2472 160.487 67.1187 160.411 67.0135C160.375 66.9699 160.33 66.9352 160.279 66.9123C160.228 66.8894 160.172 66.879 160.116 66.8818C160.022 66.8808 159.931 66.9079 159.853 66.9595C159.751 67.0322 159.662 67.1212 159.59 67.223V68.7252H158.992V65.3203H159.599Z" fill="white"/>
<path d="M163.547 65.2736C163.737 65.2736 163.927 65.2957 164.113 65.3395C164.319 65.3919 164.52 65.467 164.71 65.5635V66.1815C164.527 66.0721 164.333 65.9837 164.131 65.918C163.951 65.8648 163.764 65.8382 163.576 65.8389C163.348 65.8343 163.122 65.8854 162.918 65.9878C162.729 66.0815 162.572 66.228 162.465 66.4095C162.36 66.5947 162.304 66.8043 162.304 67.0176C162.304 67.2309 162.36 67.4405 162.465 67.6257C162.572 67.806 162.729 67.9512 162.917 68.0434C163.121 68.1433 163.347 68.1934 163.574 68.1897C163.755 68.1905 163.936 68.1638 164.109 68.1106C164.33 68.0332 164.544 67.9362 164.748 67.8207V68.4387C164.557 68.5433 164.354 68.6264 164.144 68.6864C163.933 68.7386 163.717 68.7634 163.499 68.7602C163.167 68.7656 162.838 68.692 162.539 68.5454C162.265 68.4075 162.036 68.1934 161.881 67.9288C161.72 67.6631 161.636 67.3579 161.639 67.0472C161.634 66.7225 161.72 66.4029 161.888 66.1249C162.052 65.8536 162.289 65.6347 162.573 65.4937C162.876 65.3443 163.209 65.2689 163.547 65.2736Z" fill="white"/>
<path d="M73.1602 51.6355L69.9339 60.5153C69.8944 60.6244 69.8817 60.7414 69.8968 60.8564C69.912 60.9714 69.9547 61.0811 70.0212 61.1761C70.0876 61.2711 70.176 61.3487 70.2788 61.4023C70.3815 61.4558 70.4957 61.4838 70.6115 61.4838H79.3392C79.7193 61.484 80.0903 61.367 80.4018 61.1487C80.7132 60.9304 80.95 60.6214 81.08 60.2637L84.3076 51.3826C84.3474 51.2736 84.3604 51.1566 84.3454 51.0416C84.3304 50.9266 84.2879 50.8168 84.2215 50.7218C84.1551 50.6267 84.0668 50.5491 83.964 50.4955C83.8613 50.4419 83.7471 50.414 83.6313 50.4141H74.9023C74.5219 50.4141 74.1506 50.5313 73.839 50.7498C73.5273 50.9683 73.2904 51.2775 73.1602 51.6355Z" fill="#FECC2F"/>
<path d="M55.2929 60.517L58.5271 51.6214C58.6555 51.2672 58.8897 50.9612 59.1979 50.745C59.5061 50.5288 59.8733 50.4129 60.2495 50.4131H69.2245C69.4576 50.4131 69.685 50.3412 69.8759 50.2073C70.0668 50.0735 70.2119 49.884 70.2916 49.6646L73.66 40.3948C73.7112 40.253 73.7324 40.102 73.7222 39.9515C73.7119 39.801 73.6705 39.6543 73.6006 39.5207C73.5307 39.3871 73.4338 39.2695 73.316 39.1755C73.1982 39.0814 73.0622 39.0129 72.9166 38.9744C71.7745 38.6673 70.3271 38.5 68.539 38.5C53.8653 38.5 44.714 47.7237 43.8074 58.5787C43.135 66.6507 48.1798 73.5 58.6982 73.5C59.3636 73.5016 60.0283 73.4575 60.6877 73.3682C61.0022 73.3251 61.2989 73.1968 61.5459 72.9971C61.7929 72.7973 61.9807 72.5338 62.089 72.235L65.6771 62.363C65.7116 62.2645 65.7221 62.1591 65.7079 62.0556C65.6936 61.9522 65.655 61.8536 65.5953 61.768C65.5355 61.6824 65.4563 61.6123 65.3642 61.5634C65.272 61.5145 65.1696 61.4882 65.0653 61.4868H55.9692C55.8532 61.4869 55.7389 61.459 55.636 61.4054C55.5331 61.3517 55.4447 61.274 55.3783 61.1787C55.3118 61.0835 55.2694 60.9735 55.2545 60.8583C55.2397 60.7431 55.2528 60.626 55.2929 60.517Z" fill="white"/>
</g>
</g>
<defs>
<filter id="filter0_d_4456_204390" x="0" y="0" width="203.5" height="116" filterUnits="userSpaceOnUse" color-interpolation-filters="sRGB">
<feFlood flood-opacity="0" result="BackgroundImageFix"/>
<feColorMatrix in="SourceAlpha" type="matrix" values="0 0 0 0 0 0 0 0 0 0 0 0 0 0 0 0 0 0 127 0" result="hardAlpha"/>
<feMorphology radius="4" operator="dilate" in="SourceAlpha" result="effect1_dropShadow_4456_204390"/>
<feOffset dy="2"/>
<feGaussianBlur stdDeviation="7"/>
<feComposite in2="hardAlpha" operator="out"/>
<feColorMatrix type="matrix" values="0 0 0 0 0.816667 0 0 0 0 0.816667 0 0 0 0 0.816667 0 0 0 0.35 0"/>
<feBlend mode="normal" in2="BackgroundImageFix" result="effect1_dropShadow_4456_204390"/>
<feBlend mode="normal" in="SourceGraphic" in2="effect1_dropShadow_4456_204390" result="shape"/>
</filter>
<clipPath id="clip0_4456_204390">
<rect width="121" height="35" fill="white" transform="translate(43.75 38.5)"/>
</clipPath>
</defs>
</svg>