<svg width="14" height="14" viewBox="0 0 14 14" fill="none" xmlns="http://www.w3.org/2000/svg">
<path fill-rule="evenodd" clip-rule="evenodd" d="M4.16667 5.5H2.33333C1.59667 5.5 1 4.90333 1 4.16667V2.33333C1 1.59667 1.59667 1 2.33333 1H4.16667C4.90333 1 5.5 1.59667 5.5 2.33333V4.16667C5.5 4.90333 4.90333 5.5 4.16667 5.5Z" stroke="#027373" stroke-linecap="round" stroke-linejoin="round"/>
<path fill-rule="evenodd" clip-rule="evenodd" d="M11.6667 5.5H9.83333C9.09667 5.5 8.5 4.90333 8.5 4.16667V2.33333C8.5 1.59667 9.09667 1 9.83333 1H11.6667C12.4033 1 13 1.59667 13 2.33333V4.16667C13 4.90333 12.4033 5.5 11.6667 5.5Z" stroke="#027373" stroke-linecap="round" stroke-linejoin="round"/>
<path fill-rule="evenodd" clip-rule="evenodd" d="M4.16667 13H2.33333C1.59667 13 1 12.4033 1 11.6667V9.83333C1 9.09667 1.59667 8.5 2.33333 8.5H4.16667C4.90333 8.5 5.5 9.09667 5.5 9.83333V11.6667C5.5 12.4033 4.90333 13 4.16667 13Z" stroke="#027373" stroke-linecap="round" stroke-linejoin="round"/>
<path fill-rule="evenodd" clip-rule="evenodd" d="M11.6667 13H9.83333C9.09667 13 8.5 12.4033 8.5 11.6667V9.83333C8.5 9.09667 9.09667 8.5 9.83333 8.5H11.6667C12.4033 8.5 13 9.09667 13 9.83333V11.6667C13 12.4033 12.4033 13 11.6667 13Z" stroke="#027373" stroke-linecap="round" stroke-linejoin="round"/>
</svg>
