<svg width="139" height="50" viewBox="0 0 139 50" fill="none" xmlns="http://www.w3.org/2000/svg">
<g clip-path="url(#clip0_4712_259136)">
<path d="M108.887 29.8895L104.857 41.0007C104.636 41.6118 105.078 42.2229 105.685 42.2229H116.559C117.553 42.2229 118.381 41.6118 118.712 40.6673L122.742 29.5562C122.963 28.9451 122.521 28.334 121.914 28.334H111.039C110.046 28.3895 109.218 29.0007 108.887 29.8895Z" fill="#FFCE00"/>
<path d="M0.75 24.2216C0.75 23.3327 1.4124 22.666 2.2956 22.666C3.1236 22.666 3.8412 23.3327 3.8412 24.2216V40.666C3.8412 41.5549 3.1236 42.2216 2.2956 42.2216C1.4124 42.2216 0.75 41.5549 0.75 40.666V24.2216ZM20.2356 34.1105V40.7771C20.2356 41.6105 19.5732 42.2771 18.8004 42.2771C18.0276 42.2771 17.31 41.6105 17.31 40.7771V34.1105C17.31 32.5549 15.9852 31.2771 14.4396 31.2771C12.894 31.2771 11.6796 32.5549 11.6796 34.1105V40.7771C11.6796 40.8882 11.6796 40.9438 11.6244 41.0549C11.514 41.666 10.9068 42.2216 10.1892 42.2216C9.3612 42.2216 8.6988 41.5549 8.6988 40.7216V29.7216C8.6988 28.8882 9.3612 28.2216 10.1892 28.2216C10.7964 28.2216 11.2932 28.5549 11.5692 29.1105C12.3972 28.5549 13.446 28.2216 14.4948 28.2216C17.6412 28.2771 20.2356 30.9438 20.2356 34.1105ZM31.8828 29.8327C31.8828 30.666 31.1652 31.3882 30.3372 31.3882H29.6196V39.166C30.5028 39.166 31.1652 39.8882 31.1652 40.7216C31.1652 41.6105 30.5028 42.2771 29.6196 42.2771C27.9084 42.2771 26.5284 40.8882 26.5284 39.166V31.3882H25.7004C24.8172 31.3882 24.1548 30.666 24.1548 29.8327C24.1548 28.9438 24.8172 28.2771 25.7004 28.2771H26.5284V24.2216C26.5284 23.3327 27.246 22.666 28.074 22.666C28.902 22.666 29.6196 23.3327 29.6196 24.2216V28.2771H30.3372C31.1652 28.2771 31.8828 28.9438 31.8828 29.8327ZM43.3092 29.7771C43.3092 30.5549 42.6468 31.2771 41.8188 31.2771C41.1564 31.2771 40.6044 31.4438 40.1628 31.8327C39.6108 32.166 39.2244 32.666 38.8932 33.166C38.2308 34.0549 37.8996 35.1105 37.734 35.4994V40.7771C37.734 41.6105 37.0164 42.2771 36.1884 42.2771C35.3604 42.2771 34.698 41.6105 34.698 40.7771V29.7771C34.698 28.9438 35.3604 28.3327 36.1884 28.3327C37.0164 28.3327 37.734 28.9993 37.734 29.7771V29.9993C37.8996 29.7771 38.1204 29.5549 38.3412 29.4438C39.2796 28.8327 40.4388 28.3327 41.8188 28.3327C42.702 28.3327 43.3092 28.9438 43.3092 29.7771ZM57.9924 35.2771V40.7216C57.9924 41.5549 57.33 42.2216 56.502 42.2216C55.7844 42.2216 55.2324 41.666 55.0668 40.9994C54.018 41.7771 52.7484 42.2216 51.3684 42.2216C49.4916 42.2216 47.8356 41.4438 46.6764 40.166C45.462 38.8882 44.7996 37.166 44.7996 35.2771C44.7996 33.3327 45.5172 31.6105 46.6764 30.3882C47.8908 29.1105 49.4916 28.2771 51.3684 28.2771C52.7484 28.2771 54.018 28.7771 55.0668 29.4993C55.2324 28.7771 55.7844 28.2771 56.502 28.2771C57.33 28.2771 57.9924 28.9438 57.9924 29.7771V35.2771ZM55.0668 35.2771C55.0668 34.1105 54.6252 33.1105 53.9628 32.3882C53.3004 31.6105 52.362 31.2216 51.3684 31.2216C50.3748 31.2216 49.4364 31.6105 48.774 32.3882C48.1116 33.1105 47.7252 34.1105 47.7252 35.2771C47.7252 36.4438 48.1116 37.4438 48.774 38.166C49.4364 38.8882 50.3748 39.2771 51.3684 39.2771C52.362 39.2771 53.3004 38.8882 53.9628 38.166C54.6252 37.4438 55.0668 36.4438 55.0668 35.2771ZM74.6628 34.1105V40.7771C74.6628 41.6105 74.0004 42.2771 73.2276 42.2771C72.4548 42.2771 71.7372 41.6105 71.7372 40.7771V34.1105C71.7372 32.5549 70.4124 31.2771 68.8668 31.2771C67.3212 31.2771 66.1068 32.5549 66.1068 34.1105V40.7771C66.1068 40.8882 66.1068 40.9438 66.0516 41.0549C65.886 41.7216 65.2788 42.2771 64.5612 42.2771C63.7332 42.2771 63.0708 41.6105 63.0708 40.7771V29.7771C63.0708 28.9438 63.7332 28.2771 64.5612 28.2771C65.1684 28.2771 65.6652 28.6105 65.9412 29.166C66.7692 28.6105 67.818 28.2771 68.8668 28.2771C72.1236 28.2771 74.6628 30.9438 74.6628 34.1105ZM79.134 35.2771C79.134 31.4993 82.1148 28.3327 85.8684 28.3327C89.4564 28.3327 92.3268 31.0549 92.5476 34.7771V35.2216C92.4372 35.8882 91.8852 36.3327 91.1124 36.3327H82.2804C82.446 36.9994 82.722 37.7216 83.2188 38.166C83.826 38.8327 84.93 39.3327 85.8684 39.4438C86.862 39.5549 88.0764 39.2771 88.7388 38.7216C89.346 38.1105 90.45 38.166 90.8364 38.666C91.2228 39.0549 91.4988 39.8882 90.8364 40.4994C89.4564 41.7771 87.8556 42.3327 85.8684 42.3327C82.1148 42.2216 79.134 39.0549 79.134 35.2771ZM82.17 33.8882H90.0084C89.7324 32.7771 88.2972 31.1105 85.9236 30.9438C83.55 31.0549 82.3908 32.7216 82.17 33.8882ZM102.097 29.8327C102.097 30.666 101.38 31.3882 100.552 31.3882H99.834V39.166C100.717 39.166 101.38 39.8882 101.38 40.7216C101.38 41.6105 100.717 42.2771 99.834 42.2771C98.1228 42.2771 96.7428 40.8882 96.7428 39.166V31.3882H95.9148C95.0316 31.3882 94.3692 30.666 94.3692 29.8327C94.3692 28.9438 95.0316 28.2771 95.9148 28.2771H96.7428V24.2216C96.7428 23.3327 97.4604 22.666 98.2884 22.666C99.1164 22.666 99.834 23.3327 99.834 24.2216V28.2771H100.552C101.38 28.2771 102.097 28.9438 102.097 29.8327Z" fill="#00AFAA"/>
<path d="M8.4228 15.4442V19.8887C8.4228 20.4442 7.9812 20.8887 7.4292 20.8887C6.9324 20.8887 6.4356 20.4442 6.4356 19.8887V15.4442C6.4356 14.4442 5.5524 13.6109 4.5588 13.6109C3.5652 13.6109 2.682 14.4442 2.682 15.4998V20.0553C2.682 20.1109 2.682 20.1109 2.6268 20.1664V20.2776C2.4612 20.6109 2.0748 20.8887 1.6884 20.8887H1.5228C1.0812 20.722 0.750004 20.3331 0.750004 19.8331V12.6109C0.749408 12.3859 0.824499 12.1674 0.963051 11.9908C1.1016 11.8143 1.29546 11.6901 1.51305 11.6386C1.73064 11.5871 1.95915 11.6112 2.16139 11.707C2.36362 11.8029 2.52766 11.9648 2.6268 12.1664C3.234 11.8331 3.8964 11.6109 4.614 11.6109C5.7732 11.6109 6.822 12.1109 7.4844 12.8887C8.1468 12.1109 9.1956 11.6109 10.3548 11.6109C12.4524 11.6109 14.1636 13.3331 14.1636 15.4998V19.8887C14.1636 20.4442 13.722 20.8887 13.17 20.8887C12.618 20.8887 12.1764 20.4442 12.1764 19.8887V15.4998C12.1764 14.4442 11.3484 13.6109 10.2996 13.6109C9.2508 13.5553 8.478 14.3887 8.4228 15.4442ZM20.1804 9.27756C20.1804 9.83312 19.7388 10.2776 19.1868 10.2776C18.6348 10.2776 18.1932 9.83312 18.1932 9.27756V8.88867C18.1932 8.33312 18.6348 7.88867 19.1868 7.88867C19.7388 7.88867 20.1804 8.33312 20.1804 8.88867V9.27756ZM20.1804 12.6109V19.8331C20.1804 20.3887 19.7388 20.8331 19.1868 20.8331C18.6348 20.8331 18.1932 20.3887 18.1932 19.8331V12.6109C18.1932 11.9998 18.6348 11.6109 19.1868 11.6109C19.7388 11.6109 20.1804 12.0553 20.1804 12.6109Z" fill="#FFCD27"/>
</g>
<defs>
<clipPath id="clip0_4712_259136">
<rect width="138" height="50" fill="white" transform="translate(0.75)"/>
</clipPath>
</defs>
</svg>
