<svg width="116" height="34" viewBox="0 0 116 34" fill="none" xmlns="http://www.w3.org/2000/svg">
<g clip-path="url(#clip0_4353_199430)">
<path d="M47.938 19.49C46.3628 19.49 45.0861 18.4199 45.0861 16.6495C45.0861 14.9808 46.3628 13.8077 47.938 13.8077C48.5692 13.8044 49.1819 14.02 49.6718 14.4175C49.7378 14.472 49.8148 14.5117 49.8974 14.5341C49.9801 14.5566 50.0666 14.5612 50.1512 14.5476C50.2358 14.534 50.3165 14.5026 50.3879 14.4555C50.4594 14.4083 50.52 14.3465 50.5657 14.2742L50.9044 13.7347C50.9892 13.6002 51.021 13.439 50.9936 13.2824C50.9661 13.1258 50.8814 12.985 50.7558 12.8872C49.9111 12.2375 48.8719 11.8907 47.8058 11.9026C45.0534 11.9026 42.8223 13.8605 42.8223 16.6495C42.8223 19.6082 45.0534 21.395 47.8058 21.395C48.9564 21.4002 50.0749 21.0169 50.98 20.3073C51.1202 20.1963 51.2143 20.0374 51.2443 19.8612C51.2743 19.685 51.238 19.504 51.1424 19.3529L50.8981 18.9631C50.8498 18.8856 50.7858 18.8189 50.7103 18.7675C50.6347 18.716 50.5492 18.6809 50.4592 18.6643C50.3693 18.6477 50.2769 18.6501 50.1879 18.6712C50.0989 18.6924 50.0153 18.7318 49.9425 18.7871C49.3687 19.2331 48.6649 19.4799 47.938 19.49Z" fill="white"/>
<path d="M57.1359 11.9023C54.3835 11.9023 52.1523 13.8602 52.1523 16.6492C52.1523 19.6079 54.3835 21.3947 57.1359 21.3947C59.8883 21.3947 62.1194 19.6079 62.1194 16.6492C62.1194 13.8602 59.8883 11.9023 57.1359 11.9023ZM57.1359 19.4595C55.6552 19.4595 54.4552 18.4008 54.4552 16.6492C54.4552 14.9981 55.6552 13.8375 57.1359 13.8375C58.6166 13.8375 59.8165 14.9981 59.8165 16.6492C59.8165 18.4008 58.6166 19.4595 57.1359 19.4595Z" fill="white"/>
<path d="M72.2727 15.5162C72.2727 13.5194 71.5676 11.9023 68.9877 11.9023C66.8473 11.9023 65.879 13.9608 65.879 13.9608V12.8505C65.879 12.4606 65.6813 12.145 65.291 12.145H64.4524C64.2651 12.145 64.0854 12.2194 63.953 12.3516C63.8205 12.4839 63.7461 12.6634 63.7461 12.8505V20.4856C63.7461 20.5782 63.7644 20.67 63.7999 20.7556C63.8354 20.8411 63.8874 20.9189 63.953 20.9844C64.0186 21.0499 64.0964 21.1019 64.1821 21.1373C64.2678 21.1728 64.3597 21.191 64.4524 21.191H65.291C65.3838 21.191 65.4756 21.1728 65.5613 21.1373C65.647 21.1019 65.7249 21.0499 65.7905 20.9844C65.8561 20.9189 65.9081 20.8411 65.9436 20.7556C65.9791 20.67 65.9974 20.5782 65.9974 20.4856V17.0993C65.9974 15.1905 67.2388 13.9482 68.4853 13.9482C69.6047 13.9482 70.0315 14.6498 70.0315 15.5175V20.4869C70.0315 20.5795 70.0498 20.6712 70.0853 20.7568C70.1208 20.8424 70.1728 20.9202 70.2384 20.9857C70.304 21.0512 70.3819 21.1031 70.4676 21.1386C70.5533 21.174 70.6451 21.1923 70.7379 21.1923H71.5764C71.6692 21.1923 71.761 21.174 71.8467 21.1386C71.9324 21.1031 72.0103 21.0512 72.0759 20.9857C72.1415 20.9202 72.1935 20.8424 72.229 20.7568C72.2645 20.6712 72.2828 20.5795 72.2828 20.4869L72.2727 15.5162Z" fill="white"/>
<path d="M79.9908 14.0136C79.9089 14.1482 79.7793 14.2473 79.6277 14.291C79.4762 14.3348 79.3136 14.3202 79.1724 14.25C78.0996 13.7168 76.1506 13.2956 76.1506 14.6725C76.1506 15.2232 77.0961 15.5175 77.5658 15.7111C78.5529 16.121 79.7062 16.4178 80.3358 17.3646C80.5989 17.7582 80.6443 18.2046 80.6443 18.6523C80.6443 20.81 78.3917 21.3872 77.3631 21.396C76.25 21.406 75.0186 21.1005 74.102 20.4617C73.975 20.3713 73.8861 20.2369 73.8526 20.0848C73.8191 19.9326 73.8434 19.7734 73.9207 19.6381L74.1977 19.1577C74.2868 19.0034 74.4334 18.8904 74.6055 18.8433C74.7776 18.7962 74.9613 18.8188 75.1168 18.9063C75.6009 19.1865 76.1194 19.4029 76.6592 19.5501C77.3517 19.7286 78.5 19.5941 78.5 18.8069C78.5 17.7658 77.4928 17.7494 76.3482 17.2892C75.2516 16.8516 74.0428 16.2493 74.0428 14.7743C74.0428 12.7624 75.6721 11.9023 77.4122 11.9023C78.5454 11.9023 79.4053 12.189 80.1218 12.6794C80.2507 12.7675 80.341 12.9015 80.3741 13.054C80.4071 13.2065 80.3803 13.3659 80.2993 13.4993C80.196 13.6728 80.0953 13.8413 79.9908 14.0136Z" fill="white"/>
<path d="M85.8711 11.9023C84.2934 11.9023 83.2484 12.4267 82.7145 12.7901C82.5936 12.872 82.5076 12.9961 82.4736 13.138C82.4396 13.2799 82.46 13.4294 82.5307 13.5571L82.8304 14.1054C82.9048 14.2404 83.0297 14.3406 83.1778 14.3842C83.3259 14.4278 83.4852 14.4112 83.6211 14.338C84.2554 14.0059 84.9554 13.8179 85.6709 13.7872C86.3407 13.7872 87.3556 13.9997 87.3556 15.6407C82.955 15.6407 81.6758 16.8742 81.6758 18.5718C81.6758 20.2693 82.6352 21.3947 84.8235 21.3947C86.6366 21.3947 87.5469 19.6255 87.5469 19.6255V20.4856C87.5469 20.6727 87.6214 20.8521 87.7538 20.9844C87.8863 21.1167 88.066 21.191 88.2533 21.191H88.8589C89.046 21.1907 89.2254 21.1162 89.3576 20.984C89.4898 20.8517 89.564 20.6725 89.564 20.4856V15.349C89.564 13.5886 88.2823 11.9023 85.8711 11.9023ZM85.2478 19.7186C84.2985 19.7186 83.8628 19.0823 83.8628 18.4071C83.8628 17.2112 85.4077 16.9673 87.3543 16.9673C87.3581 18.5844 86.4679 19.7186 85.2504 19.7186H85.2478Z" fill="white"/>
<path d="M93.888 9.29527V18.3362C93.888 19.7358 95.1194 18.8732 95.1194 19.9256V20.6801C95.1194 20.8378 95.0566 20.9891 94.945 21.1006C94.8333 21.2122 94.6818 21.2749 94.5238 21.2749C92.124 21.2749 91.6367 20.0338 91.6367 18.0055V9.29527C91.6367 9.10818 91.7111 8.92875 91.8436 8.79646C91.9761 8.66417 92.1557 8.58984 92.3431 8.58984H93.1816C93.369 8.58984 93.5486 8.66417 93.6811 8.79646C93.8136 8.92875 93.888 9.10818 93.888 9.29527Z" fill="white"/>
<path d="M96.4921 17.7843C96.4921 19.7811 97.0788 21.3981 99.6587 21.3981C102.017 21.3981 102.82 19.3397 102.82 19.3397V20.45C102.82 20.8398 103.018 21.1555 103.408 21.1555H104.253C104.346 21.1555 104.438 21.1372 104.523 21.1018C104.609 21.0663 104.687 21.0143 104.753 20.9488C104.818 20.8833 104.87 20.8056 104.906 20.72C104.941 20.6344 104.959 20.5427 104.959 20.45V12.8539C104.959 12.6668 104.885 12.4873 104.753 12.3551C104.62 12.2228 104.44 12.1484 104.253 12.1484H103.415C103.227 12.1484 103.048 12.2228 102.915 12.3551C102.783 12.4873 102.708 12.6668 102.708 12.8539V16.2024C102.708 18.1112 101.532 19.3535 100.287 19.3535C99.1664 19.3535 98.7395 18.6519 98.7395 17.7843V12.8539C98.7395 12.6668 98.6651 12.4873 98.5327 12.3551C98.4002 12.2228 98.2205 12.1484 98.0332 12.1484H97.1946C97.0073 12.1484 96.8276 12.2228 96.6952 12.3551C96.5627 12.4873 96.4883 12.6668 96.4883 12.8539L96.4921 17.7843Z" fill="white"/>
<path d="M113.408 9.29527V13.1933C112.733 12.3948 111.82 11.9044 110.8 11.9044C108.822 11.9044 106.656 13.4058 106.656 16.6513C106.656 19.2718 107.988 21.3968 110.622 21.3968C111.783 21.3968 112.827 20.8008 113.552 19.8489V20.5342C113.553 20.7091 113.622 20.8767 113.746 21.0002C113.87 21.1237 114.038 21.1931 114.213 21.1931H114.955C115.13 21.1928 115.297 21.1233 115.421 20.9998C115.545 20.8763 115.614 20.7089 115.615 20.5342V9.29527C115.615 9.10818 115.54 8.92875 115.408 8.79646C115.275 8.66417 115.096 8.58984 114.908 8.58984H114.118C113.93 8.58984 113.751 8.66417 113.618 8.79646C113.486 8.92875 113.411 9.10818 113.411 9.29527H113.408ZM111.178 19.5283C109.66 19.5283 108.894 18.2092 108.894 16.6513C108.894 14.7789 110.018 13.8686 111.28 13.8686C112.578 13.8686 113.46 15.0933 113.46 16.6513C113.458 18.5173 112.437 19.5283 111.178 19.5283Z" fill="white"/>
<path d="M85.9783 25.5524C86.2978 25.5532 86.6119 25.635 86.8911 25.79V26.3471C86.6254 26.1673 86.3162 26.0622 85.9959 26.0428C85.8661 26.0353 85.737 26.0673 85.6257 26.1346C85.5841 26.1603 85.5498 26.1965 85.5264 26.2395C85.503 26.2825 85.4913 26.3308 85.4923 26.3798C85.4923 26.5055 85.5754 26.6149 85.7441 26.718C85.7911 26.7499 85.9703 26.8366 86.2817 26.9783C86.5038 27.0703 86.7009 27.2133 86.8571 27.3958C86.977 27.5545 87.0396 27.749 87.0347 27.9478C87.0389 28.0757 87.014 28.203 86.9619 28.3199C86.9098 28.4369 86.8318 28.5405 86.7337 28.623C86.5128 28.7988 86.2353 28.8882 85.9531 28.8745C85.7723 28.8776 85.592 28.8544 85.418 28.8054C85.2413 28.7472 85.0723 28.6683 84.9143 28.5702V27.9528C85.2618 28.2403 85.5888 28.3841 85.8952 28.3841C86.0284 28.3918 86.1607 28.357 86.2729 28.2848C86.317 28.2562 86.3532 28.2168 86.3778 28.1704C86.4025 28.1239 86.4149 28.072 86.4139 28.0195C86.4107 27.941 86.3853 27.865 86.3408 27.8003C86.2962 27.7356 86.2343 27.6847 86.1621 27.6535C86.0249 27.5794 85.8498 27.4901 85.6333 27.3857C85.4138 27.2957 85.2179 27.1567 85.0604 26.9796C84.9355 26.8282 84.8685 26.6375 84.8715 26.4414C84.8674 26.3165 84.8928 26.1924 84.9458 26.0793C84.9987 25.9661 85.0777 25.867 85.1762 25.79C85.4086 25.6218 85.6916 25.538 85.9783 25.5524Z" fill="white"/>
<path d="M89.2439 25.5512C89.559 25.5467 89.8704 25.6184 90.1518 25.76C90.4183 25.8977 90.6417 26.106 90.7977 26.362C90.9536 26.6181 91.0361 26.912 91.0361 27.2117C91.0361 27.5114 90.9536 27.8053 90.7977 28.0613C90.6417 28.3173 90.4183 28.5256 90.1518 28.6634C89.8669 28.806 89.5526 28.8802 89.2339 28.8802C88.9152 28.8802 88.6009 28.806 88.316 28.6634C88.0508 28.5262 87.8286 28.3187 87.6739 28.0636C87.5203 27.8091 87.4405 27.517 87.4434 27.2198C87.4432 26.925 87.5228 26.6357 87.6739 26.3824C87.8224 26.1243 88.0405 25.913 88.3034 25.7725C88.5931 25.6204 88.9167 25.5443 89.2439 25.5512ZM88.0982 27.2161C88.0952 27.4187 88.1455 27.6186 88.2442 27.7957C88.3394 27.9651 88.4809 28.1038 88.6522 28.1956C88.8344 28.2915 89.038 28.34 89.2439 28.3364C89.3948 28.3415 89.5451 28.3164 89.686 28.2626C89.827 28.2088 89.9558 28.1275 90.0649 28.0233C90.1719 27.9186 90.2559 27.7927 90.3114 27.6537C90.3669 27.5147 90.3927 27.3656 90.3872 27.2161C90.3905 27.0131 90.3405 26.8129 90.2424 26.6351C90.1478 26.4647 90.0056 26.3253 89.8332 26.234C89.65 26.1382 89.4457 26.0897 89.2389 26.0932C89.0324 26.0894 88.8282 26.1383 88.6459 26.2353C88.4745 26.3262 88.3336 26.4652 88.2404 26.6351C88.1434 26.8132 88.0944 27.0134 88.0982 27.2161Z" fill="white"/>
<path d="M92.1866 25.5938L93.253 26.8726L94.3195 25.5938H94.8798V28.8354H94.2502V26.5595H94.2313L93.2996 27.7012H93.2115L92.2722 26.5595H92.2546V28.8354H91.625V25.5938H92.1866Z" fill="white"/>
<path d="M97.2591 25.5512C97.5742 25.5468 97.8856 25.6184 98.167 25.76C98.3652 25.8639 98.5402 26.0071 98.6812 26.1809C98.8221 26.3546 98.9261 26.5553 98.9868 26.7705C99.0475 26.9858 99.0636 27.2111 99.0342 27.4328C99.0047 27.6545 98.9302 27.8678 98.8154 28.0598C98.6618 28.3163 98.4399 28.5253 98.1745 28.6634C97.8901 28.8095 97.5739 28.8834 97.2541 28.8784C96.9351 28.8825 96.6202 28.8073 96.3375 28.6596C96.0723 28.5224 95.8501 28.3149 95.6953 28.0598C95.5418 27.8053 95.462 27.5132 95.4649 27.2161C95.4647 26.9213 95.5443 26.6319 95.6953 26.3786C95.8442 26.1208 96.0623 25.9095 96.3249 25.7688C96.6131 25.619 96.9344 25.5442 97.2591 25.5512ZM96.1134 27.2161C96.1103 27.4188 96.1607 27.6187 96.2594 27.7958C96.3546 27.9651 96.4961 28.1038 96.6674 28.1956C96.8496 28.2916 97.0532 28.34 97.2591 28.3365C97.4102 28.3417 97.5607 28.3166 97.7019 28.2629C97.8431 28.2091 97.9721 28.1277 98.0813 28.0234C98.1879 27.9184 98.2715 27.7924 98.3268 27.6534C98.3821 27.5144 98.4078 27.3655 98.4024 27.2161C98.4057 27.0131 98.3558 26.8129 98.2576 26.6351C98.1634 26.4644 98.0211 26.3249 97.8484 26.234C97.6652 26.1382 97.4609 26.0898 97.2541 26.0932C97.0476 26.0897 96.8435 26.1386 96.6611 26.2353C96.4897 26.3262 96.3488 26.4652 96.2556 26.6351C96.1592 26.8134 96.1102 27.0135 96.1134 27.2161Z" fill="white"/>
<path d="M100.578 25.5527C100.898 25.5535 101.212 25.6353 101.491 25.7903V26.3474C101.226 26.1679 100.917 26.0628 100.597 26.0431C100.465 26.0342 100.333 26.0663 100.219 26.1349C100.178 26.1608 100.144 26.197 100.121 26.24C100.097 26.2829 100.085 26.3312 100.086 26.3801C100.086 26.5058 100.169 26.6152 100.338 26.7183C100.384 26.7502 100.563 26.8369 100.874 26.9786C101.097 27.0706 101.294 27.2136 101.451 27.3961C101.57 27.5549 101.632 27.7495 101.627 27.9481C101.631 28.076 101.607 28.2033 101.554 28.3203C101.502 28.4372 101.424 28.5408 101.326 28.6233C101.106 28.7992 100.829 28.8886 100.547 28.8748C100.366 28.878 100.185 28.8547 100.01 28.8057C99.8338 28.7476 99.6647 28.6687 99.5068 28.5705V27.9531C99.8535 28.2407 100.18 28.3844 100.488 28.3844C100.621 28.3921 100.753 28.3574 100.865 28.2851C100.91 28.2565 100.946 28.2172 100.971 28.1708C100.996 28.1244 101.008 28.0724 101.008 28.0198C101.004 27.9413 100.979 27.8654 100.934 27.8007C100.89 27.736 100.828 27.6851 100.756 27.6539C100.62 27.5801 100.444 27.4908 100.228 27.386C100.009 27.2963 99.8127 27.1573 99.6554 26.9799C99.5301 26.8287 99.4627 26.6379 99.4653 26.4417C99.4611 26.3168 99.4866 26.1928 99.5395 26.0796C99.5925 25.9664 99.6714 25.8673 99.77 25.7903C100.004 25.6207 100.29 25.5368 100.578 25.5527Z" fill="white"/>
<path d="M105.205 25.5511C105.388 25.5511 105.569 25.5722 105.747 25.614C105.945 25.6641 106.136 25.7358 106.318 25.8277V26.4175C106.144 26.3133 105.958 26.2289 105.764 26.166C105.592 26.1152 105.413 26.0898 105.233 26.0905C105.015 26.086 104.799 26.1348 104.604 26.2326C104.423 26.3223 104.272 26.462 104.169 26.635C104.069 26.812 104.016 27.0119 104.016 27.2153C104.016 27.4187 104.069 27.6186 104.169 27.7956C104.272 27.9675 104.422 28.1059 104.602 28.1942C104.798 28.2896 105.014 28.3374 105.232 28.3338C105.405 28.3347 105.577 28.3092 105.742 28.2583C105.954 28.1847 106.159 28.0921 106.355 27.9817V28.5714C106.17 28.6702 105.975 28.7486 105.773 28.8053C105.571 28.8551 105.363 28.8788 105.155 28.8757C104.837 28.8807 104.523 28.8105 104.237 28.6708C103.975 28.5387 103.757 28.3345 103.608 28.0823C103.455 27.8285 103.375 27.5373 103.377 27.2411C103.372 26.9312 103.455 26.6262 103.615 26.3609C103.772 26.1021 103.999 25.8932 104.27 25.7586C104.561 25.6166 104.882 25.5455 105.205 25.5511Z" fill="white"/>
<path d="M108.61 25.5512C108.792 25.5512 108.974 25.5723 109.152 25.6141C109.349 25.6642 109.541 25.7359 109.723 25.8278V26.4176C109.548 26.3134 109.363 26.229 109.169 26.1661C108.997 26.1154 108.818 26.0899 108.638 26.0906C108.419 26.0861 108.203 26.1349 108.008 26.2327C107.828 26.3224 107.677 26.4621 107.574 26.6351C107.474 26.8121 107.421 27.012 107.421 27.2154C107.421 27.4188 107.474 27.6187 107.574 27.7957C107.677 27.9676 107.827 28.106 108.007 28.1943C108.203 28.2897 108.419 28.3375 108.637 28.3339C108.807 28.3342 108.977 28.3087 109.14 28.2585C109.352 28.1849 109.558 28.0923 109.753 27.9818V28.5716C109.569 28.6706 109.374 28.749 109.172 28.8054C108.969 28.8552 108.762 28.8789 108.553 28.8759C108.236 28.8808 107.921 28.8106 107.636 28.6709C107.374 28.5389 107.155 28.3346 107.006 28.0824C106.853 27.8286 106.773 27.5375 106.776 27.2412C106.771 26.9313 106.853 26.6263 107.014 26.361C107.17 26.1025 107.397 25.8936 107.668 25.7587C107.961 25.6157 108.284 25.5446 108.61 25.5512Z" fill="white"/>
<path d="M110.858 25.5938V26.9769H110.872C110.948 26.8709 111.048 26.7843 111.164 26.7242C111.28 26.6641 111.408 26.6322 111.539 26.6311C111.643 26.6268 111.746 26.645 111.843 26.6842C111.939 26.7235 112.026 26.783 112.097 26.8587C112.242 27.0216 112.318 27.2345 112.308 27.4522V28.8354H111.738V27.5566C111.744 27.4325 111.708 27.31 111.635 27.2096C111.601 27.1679 111.558 27.1348 111.509 27.113C111.46 27.0911 111.406 27.0811 111.353 27.0838C111.263 27.0829 111.175 27.1087 111.101 27.158C111.004 27.2274 110.918 27.3123 110.849 27.4095V28.843H110.277V25.5938H110.858Z" fill="white"/>
<path d="M114.636 25.551C114.819 25.5509 115 25.572 115.178 25.6139C115.376 25.6638 115.567 25.7355 115.749 25.8276V26.4174C115.575 26.3129 115.389 26.2286 115.195 26.1659C115.023 26.1151 114.844 26.0897 114.664 26.0904C114.446 26.086 114.23 26.1348 114.035 26.2325C113.854 26.3219 113.704 26.4617 113.601 26.6349C113.5 26.8117 113.447 27.0117 113.447 27.2152C113.447 27.4187 113.5 27.6187 113.601 27.7955C113.703 27.9676 113.854 28.1061 114.033 28.1941C114.229 28.2895 114.445 28.3373 114.663 28.3337C114.836 28.3345 115.008 28.3091 115.174 28.2582C115.386 28.1844 115.591 28.0918 115.786 27.9816V28.5713C115.603 28.6712 115.409 28.7504 115.208 28.8077C115.006 28.8575 114.799 28.8812 114.591 28.8782C114.273 28.8833 113.958 28.8131 113.672 28.6732C113.41 28.5416 113.191 28.3373 113.042 28.0847C112.888 27.8312 112.808 27.54 112.811 27.2435C112.806 26.9336 112.888 26.6286 113.049 26.3633C113.206 26.1045 113.433 25.8956 113.705 25.761C113.994 25.6184 114.314 25.5464 114.636 25.551Z" fill="white"/>
<path d="M28.1424 12.5328L25.0551 21.0067C25.0173 21.1108 25.0051 21.2224 25.0196 21.3322C25.0342 21.4419 25.075 21.5466 25.1386 21.6372C25.2022 21.7279 25.2868 21.8019 25.3851 21.8531C25.4834 21.9042 25.5927 21.9309 25.7035 21.9309H34.0551C34.4189 21.9311 34.7739 21.8195 35.0719 21.6111C35.37 21.4028 35.5965 21.1079 35.7209 20.7665L38.8095 12.2914C38.8476 12.1874 38.86 12.0758 38.8456 11.966C38.8313 11.8563 38.7906 11.7516 38.7271 11.6608C38.6636 11.5701 38.5791 11.496 38.4807 11.4449C38.3824 11.3938 38.2732 11.3671 38.1623 11.3672H29.8094C29.4454 11.3672 29.0901 11.479 28.7919 11.6876C28.4937 11.8961 28.2669 12.1912 28.1424 12.5328Z" fill="#FECC2F"/>
<path d="M11.0455 21.0105L14.1404 12.5215C14.2632 12.1836 14.4874 11.8916 14.7822 11.6852C15.0771 11.4789 15.4285 11.3683 15.7885 11.3685H24.3768C24.5999 11.3685 24.8175 11.2999 25.0002 11.1722C25.1829 11.0444 25.3217 10.8636 25.398 10.6543L28.6213 1.80819C28.6703 1.67282 28.6905 1.52874 28.6807 1.38513C28.6709 1.24152 28.6313 1.10151 28.5644 0.974021C28.4975 0.846527 28.4047 0.734334 28.2921 0.644579C28.1794 0.554824 28.0492 0.489471 27.9099 0.452677C26.817 0.159694 25.432 0 23.7209 0C9.67939 0 0.922364 8.80205 0.0548453 19.1608C-0.588554 26.8639 4.23883 33.4 14.3041 33.4C14.9408 33.4015 15.5768 33.3595 16.2078 33.2743C16.5088 33.2331 16.7928 33.1106 17.0291 32.9201C17.2654 32.7295 17.4451 32.478 17.5488 32.1929L20.9823 22.7722C21.0153 22.6781 21.0253 22.5775 21.0117 22.4788C20.9981 22.3801 20.9612 22.286 20.904 22.2043C20.8468 22.1227 20.771 22.0557 20.6828 22.0091C20.5946 21.9624 20.4966 21.9374 20.3968 21.936H11.6927C11.5817 21.9361 11.4723 21.9094 11.3738 21.8583C11.2753 21.8071 11.1907 21.7329 11.1272 21.642C11.0636 21.5511 11.023 21.4462 11.0088 21.3362C10.9946 21.2263 11.0072 21.1145 11.0455 21.0105Z" fill="white"/>
</g>
<defs>
<clipPath id="clip0_4353_199430">
<rect width="115.787" height="33.4" fill="white"/>
</clipPath>
</defs>
</svg>
