<svg width="24" height="25" viewBox="0 0 24 25" fill="none" xmlns="http://www.w3.org/2000/svg">
<g id="Group">
<g id="Group_2">
<path id="Path" d="M13.1853 8.08464C13.8398 8.73916 13.8398 9.80034 13.1853 10.4549C12.5308 11.1094 11.4696 11.1094 10.8151 10.4549C10.1606 9.80034 10.1606 8.73916 10.8151 8.08464C11.4696 7.43012 12.5308 7.43012 13.1853 8.08464" stroke="#00CBBF" stroke-width="1.5" stroke-linecap="round" stroke-linejoin="round"/>
<path id="Path_2" d="M17.4846 9.05578V9.05578C17.4846 10.5458 16.8226 11.9578 15.6786 12.9118L13.8796 14.4108C13.1626 15.0088 12.6266 15.7938 12.3316 16.6798L11.9996 17.6758L11.6676 16.6798C11.3726 15.7948 10.8366 15.0088 10.1196 14.4108L8.32065 12.9118C7.17565 11.9578 6.51465 10.5458 6.51465 9.05578V9.05578V9.08378C6.51465 5.66178 9.34865 3.67578 11.9996 3.67578C14.6506 3.67578 17.4846 5.66178 17.4846 9.08378" stroke="#00CBBF" stroke-width="1.5" stroke-linecap="round" stroke-linejoin="round"/>
<path id="Path_3" d="M7 15.2734C4.591 15.9004 3 16.9634 3 18.1754C3 20.1084 7.029 21.6754 12 21.6754C16.971 21.6754 21 20.1084 21 18.1754C21 16.9634 19.409 15.8994 17 15.2734" stroke="#00CBBF" stroke-width="1.5" stroke-linecap="round" stroke-linejoin="round"/>
</g>
</g>
</svg>
