<svg width="139" height="50" viewBox="0 0 139 50" fill="none" xmlns="http://www.w3.org/2000/svg">
<g clip-path="url(#clip0_4456_204379)">
<path d="M108.886 29.8876L104.857 40.9987C104.636 41.6098 105.077 42.2209 105.685 42.2209H116.559C117.553 42.2209 118.381 41.6098 118.712 40.6654L122.741 29.5543C122.962 28.9431 122.521 28.332 121.913 28.332H111.039C110.045 28.3876 109.217 28.9987 108.886 29.8876Z" fill="#FFCE00"/>
<path d="M0.75 24.2235C0.75 23.3346 1.4124 22.668 2.2956 22.668C3.1236 22.668 3.8412 23.3346 3.8412 24.2235V40.668C3.8412 41.5569 3.1236 42.2235 2.2956 42.2235C1.4124 42.2235 0.75 41.5569 0.75 40.668V24.2235ZM20.2356 34.1124V40.7791C20.2356 41.6124 19.5732 42.2791 18.8004 42.2791C18.0276 42.2791 17.31 41.6124 17.31 40.7791V34.1124C17.31 32.5569 15.9852 31.2791 14.4396 31.2791C12.894 31.2791 11.6796 32.5569 11.6796 34.1124V40.7791C11.6796 40.8902 11.6796 40.9457 11.6244 41.0569C11.514 41.668 10.9068 42.2235 10.1892 42.2235C9.3612 42.2235 8.6988 41.5569 8.6988 40.7235V29.7235C8.6988 28.8902 9.3612 28.2235 10.1892 28.2235C10.7964 28.2235 11.2932 28.5569 11.5692 29.1124C12.3972 28.5569 13.446 28.2235 14.4948 28.2235C17.6412 28.2791 20.2356 30.9457 20.2356 34.1124ZM31.8828 29.8346C31.8828 30.668 31.1652 31.3902 30.3372 31.3902H29.6196V39.168C30.5028 39.168 31.1652 39.8902 31.1652 40.7235C31.1652 41.6124 30.5028 42.2791 29.6196 42.2791C27.9084 42.2791 26.5284 40.8902 26.5284 39.168V31.3902H25.7004C24.8172 31.3902 24.1548 30.668 24.1548 29.8346C24.1548 28.9457 24.8172 28.2791 25.7004 28.2791H26.5284V24.2235C26.5284 23.3346 27.246 22.668 28.074 22.668C28.902 22.668 29.6196 23.3346 29.6196 24.2235V28.2791H30.3372C31.1652 28.2791 31.8828 28.9457 31.8828 29.8346ZM43.3092 29.7791C43.3092 30.5569 42.6468 31.2791 41.8188 31.2791C41.1564 31.2791 40.6044 31.4457 40.1628 31.8346C39.6108 32.168 39.2244 32.668 38.8932 33.168C38.2308 34.0569 37.8996 35.1124 37.734 35.5013V40.7791C37.734 41.6124 37.0164 42.2791 36.1884 42.2791C35.3604 42.2791 34.698 41.6124 34.698 40.7791V29.7791C34.698 28.9457 35.3604 28.3346 36.1884 28.3346C37.0164 28.3346 37.734 29.0013 37.734 29.7791V30.0013C37.8996 29.7791 38.1204 29.5569 38.3412 29.4457C39.2796 28.8346 40.4388 28.3346 41.8188 28.3346C42.702 28.3346 43.3092 28.9457 43.3092 29.7791ZM57.9924 35.2791V40.7235C57.9924 41.5569 57.33 42.2235 56.502 42.2235C55.7844 42.2235 55.2324 41.668 55.0668 41.0013C54.018 41.7791 52.7484 42.2235 51.3684 42.2235C49.4916 42.2235 47.8356 41.4457 46.6764 40.168C45.462 38.8902 44.7996 37.168 44.7996 35.2791C44.7996 33.3346 45.5172 31.6124 46.6764 30.3902C47.8908 29.1124 49.4916 28.2791 51.3684 28.2791C52.7484 28.2791 54.018 28.7791 55.0668 29.5013C55.2324 28.7791 55.7844 28.2791 56.502 28.2791C57.33 28.2791 57.9924 28.9457 57.9924 29.7791V35.2791ZM55.0668 35.2791C55.0668 34.1124 54.6252 33.1124 53.9628 32.3902C53.3004 31.6124 52.362 31.2235 51.3684 31.2235C50.3748 31.2235 49.4364 31.6124 48.774 32.3902C48.1116 33.1124 47.7252 34.1124 47.7252 35.2791C47.7252 36.4457 48.1116 37.4457 48.774 38.168C49.4364 38.8902 50.3748 39.2791 51.3684 39.2791C52.362 39.2791 53.3004 38.8902 53.9628 38.168C54.6252 37.4457 55.0668 36.4457 55.0668 35.2791ZM74.6628 34.1124V40.7791C74.6628 41.6124 74.0004 42.2791 73.2276 42.2791C72.4548 42.2791 71.7372 41.6124 71.7372 40.7791V34.1124C71.7372 32.5569 70.4124 31.2791 68.8668 31.2791C67.3212 31.2791 66.1068 32.5569 66.1068 34.1124V40.7791C66.1068 40.8902 66.1068 40.9457 66.0516 41.0569C65.886 41.7235 65.2788 42.2791 64.5612 42.2791C63.7332 42.2791 63.0708 41.6124 63.0708 40.7791V29.7791C63.0708 28.9457 63.7332 28.2791 64.5612 28.2791C65.1684 28.2791 65.6652 28.6124 65.9412 29.168C66.7692 28.6124 67.818 28.2791 68.8668 28.2791C72.1236 28.2791 74.6628 30.9457 74.6628 34.1124ZM79.134 35.2791C79.134 31.5013 82.1148 28.3346 85.8684 28.3346C89.4564 28.3346 92.3268 31.0569 92.5476 34.7791V35.2235C92.4372 35.8902 91.8852 36.3346 91.1124 36.3346H82.2804C82.446 37.0013 82.722 37.7235 83.2188 38.168C83.826 38.8346 84.93 39.3346 85.8684 39.4457C86.862 39.5569 88.0764 39.2791 88.7388 38.7235C89.346 38.1124 90.45 38.168 90.8364 38.668C91.2228 39.0569 91.4988 39.8902 90.8364 40.5013C89.4564 41.7791 87.8556 42.3346 85.8684 42.3346C82.1148 42.2235 79.134 39.0569 79.134 35.2791ZM82.17 33.8902H90.0084C89.7324 32.7791 88.2972 31.1124 85.9236 30.9457C83.55 31.0569 82.3908 32.7235 82.17 33.8902ZM102.097 29.8346C102.097 30.668 101.38 31.3902 100.552 31.3902H99.834V39.168C100.717 39.168 101.38 39.8902 101.38 40.7235C101.38 41.6124 100.717 42.2791 99.834 42.2791C98.1228 42.2791 96.7428 40.8902 96.7428 39.168V31.3902H95.9148C95.0316 31.3902 94.3692 30.668 94.3692 29.8346C94.3692 28.9457 95.0316 28.2791 95.9148 28.2791H96.7428V24.2235C96.7428 23.3346 97.4604 22.668 98.2884 22.668C99.1164 22.668 99.834 23.3346 99.834 24.2235V28.2791H100.552C101.38 28.2791 102.097 28.9457 102.097 29.8346Z" fill="#00AFAA"/>
<path d="M8.4228 15.4462V19.8906C8.4228 20.4462 7.9812 20.8906 7.4292 20.8906C6.9324 20.8906 6.4356 20.4462 6.4356 19.8906V15.4462C6.4356 14.4462 5.5524 13.6128 4.5588 13.6128C3.5652 13.6128 2.682 14.4462 2.682 15.5017V20.0573C2.682 20.1128 2.682 20.1128 2.6268 20.1684V20.2795C2.4612 20.6128 2.0748 20.8906 1.6884 20.8906H1.5228C1.0812 20.724 0.750004 20.3351 0.750004 19.8351V12.6128C0.749408 12.3879 0.824499 12.1693 0.963051 11.9928C1.1016 11.8162 1.29546 11.6921 1.51305 11.6406C1.73064 11.589 1.95915 11.6132 2.16139 11.709C2.36362 11.8048 2.52766 11.9668 2.6268 12.1684C3.234 11.8351 3.8964 11.6128 4.614 11.6128C5.7732 11.6128 6.822 12.1128 7.4844 12.8906C8.1468 12.1128 9.1956 11.6128 10.3548 11.6128C12.4524 11.6128 14.1636 13.3351 14.1636 15.5017V19.8906C14.1636 20.4462 13.722 20.8906 13.17 20.8906C12.618 20.8906 12.1764 20.4462 12.1764 19.8906V15.5017C12.1764 14.4462 11.3484 13.6128 10.2996 13.6128C9.2508 13.5573 8.478 14.3906 8.4228 15.4462ZM20.1804 9.27951C20.1804 9.83507 19.7388 10.2795 19.1868 10.2795C18.6348 10.2795 18.1932 9.83507 18.1932 9.27951V8.89063C18.1932 8.33507 18.6348 7.89062 19.1868 7.89062C19.7388 7.89062 20.1804 8.33507 20.1804 8.89063V9.27951ZM20.1804 12.6128V19.8351C20.1804 20.3906 19.7388 20.8351 19.1868 20.8351C18.6348 20.8351 18.1932 20.3906 18.1932 19.8351V12.6128C18.1932 12.0017 18.6348 11.6128 19.1868 11.6128C19.7388 11.6128 20.1804 12.0573 20.1804 12.6128Z" fill="#FFCD27"/>
</g>
<defs>
<clipPath id="clip0_4456_204379">
<rect width="138" height="50" fill="white" transform="translate(0.75)"/>
</clipPath>
</defs>
</svg>
